<svg id="svg" xmlns="http://www.w3.org/2000/svg" xmlns:xlink="http://www.w3.org/1999/xlink" width="400" height="400" viewBox="0, 0, 400,400"><g id="svgg"><path id="path0" d="M56.800 191.200 L 56.800 227.600 90.000 227.600 L 123.200 227.600 123.200 191.200 L 123.200 154.800 90.000 154.800 L 56.800 154.800 56.800 191.200 M231.423 169.289 C 230.891 170.048,230.800 172.023,230.800 182.800 C 230.800 197.290,230.781 197.200,233.778 197.200 C 234.859 197.200,235.850 196.926,236.411 196.471 C 237.282 195.767,237.358 195.767,238.740 196.471 C 243.954 199.130,250.181 194.083,250.181 187.200 C 250.181 180.522,243.943 175.253,239.054 177.802 C 236.870 178.942,236.800 178.818,236.800 173.814 C 236.800 168.629,236.667 168.400,233.649 168.400 C 232.445 168.400,231.890 168.622,231.423 169.289 M254.223 170.089 C 253.692 170.847,253.600 172.794,253.600 183.289 C 253.600 197.192,253.602 197.200,256.626 197.200 C 259.577 197.200,259.599 197.146,259.605 189.886 C 259.614 179.710,259.469 179.780,265.003 187.300 C 272.727 197.796,272.162 197.200,274.401 197.200 C 277.647 197.200,277.600 197.408,277.600 183.111 C 277.600 169.128,277.616 169.200,274.462 169.200 C 271.773 169.200,271.601 169.693,271.594 177.431 C 271.590 181.227,271.413 184.464,271.191 184.800 C 270.710 185.527,270.953 185.817,264.381 176.701 C 261.724 173.016,259.214 169.821,258.802 169.601 C 257.395 168.848,254.906 169.114,254.223 170.089 M73.776 171.991 C 75.072 172.484,75.411 173.267,78.460 182.800 C 79.832 187.090,81.065 190.736,81.200 190.903 C 81.336 191.070,82.670 187.392,84.166 182.730 C 87.587 172.066,89.187 170.228,93.338 172.197 C 95.334 173.145,95.568 173.624,98.555 182.900 C 100.026 187.465,101.305 191.200,101.399 191.200 C 101.492 191.200,102.679 187.735,104.035 183.500 C 107.784 171.796,108.190 171.146,111.329 171.823 C 117.610 173.179,117.611 173.282,111.562 191.128 C 108.901 198.977,106.543 206.020,106.322 206.777 C 105.435 209.813,102.125 211.466,99.462 210.203 C 97.476 209.260,97.228 208.762,94.329 199.876 C 92.908 195.518,91.582 191.950,91.383 191.947 C 91.185 191.943,89.806 195.586,88.319 200.041 C 84.893 210.303,83.486 211.933,79.496 210.266 C 77.412 209.395,77.246 209.031,72.245 194.379 C 69.734 187.021,67.394 180.190,67.045 179.200 C 65.663 175.273,66.421 173.493,70.000 172.259 C 72.170 171.511,72.459 171.490,73.776 171.991 M136.797 177.550 C 125.490 181.260,127.757 196.981,139.600 196.981 C 152.554 196.981,153.143 178.089,140.212 177.357 C 138.885 177.282,137.349 177.369,136.797 177.550 M153.423 178.089 C 152.908 178.824,152.800 180.406,152.800 187.200 C 152.800 196.786,152.922 197.200,155.746 197.200 C 158.570 197.200,158.708 196.921,158.905 190.800 C 159.101 184.693,159.216 184.256,160.792 183.603 C 163.453 182.501,164.400 184.495,164.400 191.198 C 164.400 196.593,164.710 197.200,167.470 197.200 C 170.136 197.200,170.400 196.593,170.400 190.450 C 170.400 184.906,170.997 183.200,172.938 183.200 C 174.923 183.200,175.389 184.448,175.629 190.417 C 175.883 196.757,176.084 197.200,178.703 197.200 C 181.559 197.200,181.600 197.098,181.598 190.086 C 181.595 183.025,181.280 181.374,179.558 179.413 C 177.288 176.828,173.909 176.575,171.158 178.785 C 169.328 180.256,169.189 180.265,167.994 178.993 C 166.130 177.009,162.144 176.694,160.593 178.408 C 159.640 179.461,159.027 179.407,158.237 178.200 C 157.332 176.819,154.360 176.751,153.423 178.089 M192.397 177.574 C 182.765 180.504,182.813 194.500,192.463 196.815 C 195.003 197.424,200.230 197.115,201.888 196.258 C 205.157 194.567,203.054 190.538,199.411 191.513 C 195.718 192.500,192.000 191.544,192.000 189.606 C 192.000 188.841,192.254 188.800,197.031 188.800 C 203.023 188.800,204.400 188.056,204.400 184.818 C 204.400 179.417,198.348 175.764,192.397 177.574 M208.223 178.089 C 207.708 178.824,207.600 180.406,207.600 187.200 C 207.600 196.817,207.715 197.200,210.594 197.200 C 213.364 197.200,213.600 196.726,213.600 191.152 C 213.600 184.686,214.857 182.622,218.332 183.385 C 220.658 183.896,220.986 184.731,221.138 190.542 C 221.298 196.670,221.545 197.200,224.233 197.200 C 227.001 197.200,227.200 196.761,227.200 190.643 C 227.200 180.179,221.925 174.417,215.800 178.190 C 213.928 179.343,213.600 179.406,213.600 178.614 C 213.600 177.037,209.256 176.613,208.223 178.089 M197.013 182.980 C 200.067 184.256,198.656 185.984,194.549 185.995 C 191.110 186.004,190.914 184.385,194.183 182.962 C 195.696 182.302,195.387 182.300,197.013 182.980 M142.224 184.179 C 143.450 184.983,143.930 187.373,143.147 188.777 C 141.138 192.376,135.600 191.360,135.600 187.392 C 135.600 183.833,139.103 182.134,142.224 184.179 M242.162 183.655 C 244.081 184.530,244.864 187.292,243.734 189.204 C 242.421 191.427,240.120 191.782,238.369 190.031 C 235.365 187.027,238.393 181.938,242.162 183.655 " stroke="none" fill="#cc347c" fill-rule="evenodd"></path><path id="path1" d="M56.585 154.898 C 56.480 155.174,56.440 171.690,56.497 191.600 L 56.600 227.800 90.000 227.800 L 123.400 227.800 123.400 191.200 L 123.400 154.600 90.088 154.498 C 63.651 154.417,56.737 154.499,56.585 154.898 M123.200 191.200 L 123.200 227.600 90.000 227.600 L 56.800 227.600 56.800 191.200 L 56.800 154.800 90.000 154.800 L 123.200 154.800 123.200 191.200 M234.000 168.364 C 234.990 168.505,236.070 168.764,236.400 168.940 C 236.730 169.116,236.651 168.976,236.224 168.630 C 235.768 168.260,234.777 168.022,233.824 168.053 L 232.200 168.107 234.000 168.364 M231.023 169.289 C 229.920 170.863,230.107 195.179,231.232 196.456 L 232.064 197.400 231.432 196.411 C 230.492 194.940,230.483 170.630,231.423 169.289 C 231.765 168.800,231.955 168.400,231.845 168.400 C 231.735 168.400,231.365 168.800,231.023 169.289 M256.962 169.179 C 258.577 169.402,259.168 169.729,260.307 171.025 C 261.454 172.332,261.542 172.380,260.823 171.307 C 259.578 169.452,258.447 168.793,256.611 168.853 L 255.000 168.907 256.962 169.179 M272.075 169.616 C 271.231 170.402,271.203 170.685,271.290 177.516 L 271.380 184.600 271.500 177.621 C 271.599 171.846,271.732 170.517,272.272 169.921 C 273.182 168.915,275.760 168.960,276.800 170.000 C 277.337 170.537,277.600 170.624,277.600 170.264 C 277.600 168.805,273.466 168.320,272.075 169.616 M236.885 173.900 C 236.802 178.317,237.440 179.878,238.577 178.037 C 238.700 177.838,238.447 177.767,238.015 177.880 C 237.274 178.074,237.220 177.834,237.099 173.743 L 236.970 169.400 236.885 173.900 M74.925 173.568 C 75.400 174.435,75.850 175.084,75.924 175.009 C 76.118 174.816,74.877 172.495,74.434 172.221 C 74.229 172.094,74.450 172.700,74.925 173.568 M88.122 173.029 L 87.000 174.058 88.300 173.154 C 89.015 172.657,89.600 172.193,89.600 172.125 C 89.600 171.809,89.158 172.080,88.122 173.029 M108.495 172.266 C 108.218 172.378,107.803 172.859,107.573 173.335 C 107.216 174.076,107.233 174.114,107.696 173.600 C 107.993 173.270,108.489 172.775,108.798 172.500 C 109.387 171.976,109.329 171.931,108.495 172.266 M67.201 173.798 C 66.686 174.348,66.339 174.848,66.432 174.911 C 66.524 174.974,67.084 174.524,67.674 173.912 C 68.265 173.301,68.612 172.800,68.444 172.800 C 68.277 172.800,67.717 173.249,67.201 173.798 M263.808 175.958 C 264.615 177.081,265.357 178.000,265.457 178.000 C 265.732 178.000,263.252 174.480,262.766 174.179 C 262.532 174.035,263.001 174.835,263.808 175.958 M116.093 176.000 C 116.093 176.770,116.175 177.085,116.276 176.700 C 116.376 176.315,116.376 175.685,116.276 175.300 C 116.175 174.915,116.093 175.230,116.093 176.000 M137.115 177.128 C 136.738 177.278,137.755 177.400,139.374 177.400 C 140.994 177.400,142.113 177.268,141.860 177.106 C 141.292 176.743,138.047 176.758,137.115 177.128 M155.906 177.093 C 157.172 177.207,157.777 177.498,158.252 178.223 C 159.047 179.437,159.659 179.457,160.638 178.300 L 161.400 177.400 160.493 178.168 C 159.592 178.932,159.580 178.930,158.471 177.868 C 157.607 177.040,157.001 176.816,155.778 176.870 L 154.200 176.940 155.906 177.093 M162.138 177.106 C 161.884 177.268,162.632 177.400,163.800 177.400 C 164.968 177.400,165.716 177.268,165.462 177.106 C 165.208 176.944,164.460 176.812,163.800 176.812 C 163.140 176.812,162.392 176.944,162.138 177.106 M173.338 177.106 C 173.084 177.268,173.832 177.400,175.000 177.400 C 176.168 177.400,176.916 177.268,176.662 177.106 C 176.408 176.944,175.660 176.812,175.000 176.812 C 174.340 176.812,173.592 176.944,173.338 177.106 M193.633 176.947 C 193.725 177.028,195.060 177.186,196.600 177.299 C 198.202 177.416,199.058 177.365,198.600 177.180 C 197.822 176.865,193.300 176.653,193.633 176.947 M210.800 177.164 C 211.790 177.305,212.870 177.564,213.200 177.740 C 213.530 177.916,213.451 177.776,213.024 177.430 C 212.568 177.060,211.577 176.822,210.624 176.853 L 209.000 176.907 210.800 177.164 M215.807 177.768 C 214.931 178.299,214.076 178.647,213.907 178.543 C 213.738 178.438,213.600 178.543,213.600 178.776 C 213.600 179.389,213.856 179.318,215.849 178.150 C 217.307 177.295,217.981 177.139,219.474 177.307 C 220.602 177.434,221.095 177.379,220.754 177.163 C 219.726 176.512,217.415 176.795,215.807 177.768 M239.738 177.106 C 239.484 177.268,240.322 177.400,241.600 177.400 C 242.878 177.400,243.716 177.268,243.462 177.106 C 243.208 176.944,242.370 176.812,241.600 176.812 C 240.830 176.812,239.992 176.944,239.738 177.106 M207.823 178.089 C 206.738 179.637,206.916 195.189,208.032 196.456 L 208.864 197.400 208.232 196.411 C 207.304 194.959,207.296 179.412,208.223 178.089 C 208.565 177.600,208.755 177.200,208.645 177.200 C 208.535 177.200,208.165 177.600,207.823 178.089 M134.600 178.064 C 132.589 179.170,129.132 183.266,129.717 183.850 C 129.813 183.947,130.108 183.505,130.371 182.870 C 130.935 181.508,133.300 179.154,135.000 178.262 C 135.660 177.915,136.020 177.630,135.800 177.628 C 135.580 177.626,135.040 177.822,134.600 178.064 M166.433 177.700 C 166.525 177.755,167.140 178.250,167.800 178.800 L 169.000 179.800 168.030 178.700 C 167.497 178.095,166.882 177.600,166.664 177.600 C 166.445 177.600,166.342 177.645,166.433 177.700 M170.887 178.700 C 169.930 179.635,169.914 179.681,170.781 179.006 C 172.488 177.676,172.569 177.600,172.286 177.600 C 172.136 177.600,171.506 178.095,170.887 178.700 M179.141 179.104 C 179.944 179.931,180.678 180.558,180.773 180.498 C 180.999 180.354,178.328 177.600,177.963 177.600 C 177.809 177.600,178.339 178.277,179.141 179.104 M187.781 180.100 L 186.200 181.800 187.994 180.200 C 188.980 179.320,189.865 178.555,189.961 178.500 C 190.056 178.445,189.960 178.400,189.748 178.400 C 189.536 178.400,188.651 179.165,187.781 180.100 M202.425 179.831 C 203.181 180.728,203.881 181.397,203.980 181.317 C 204.079 181.238,203.460 180.504,202.605 179.687 L 201.050 178.200 202.425 179.831 M224.239 179.576 C 224.700 180.139,225.375 181.045,225.739 181.589 C 226.102 182.133,226.400 182.381,226.400 182.140 C 226.400 181.900,225.725 180.994,224.900 180.128 C 224.075 179.262,223.777 179.013,224.239 179.576 M247.200 179.800 C 247.946 180.570,248.647 181.200,248.757 181.200 C 248.867 181.200,248.346 180.570,247.600 179.800 C 246.854 179.030,246.153 178.400,246.043 178.400 C 245.933 178.400,246.454 179.030,247.200 179.800 M266.816 180.163 C 267.568 181.209,268.356 182.173,268.567 182.303 C 268.778 182.433,268.335 181.684,267.584 180.637 C 266.832 179.591,266.044 178.627,265.833 178.497 C 265.622 178.367,266.065 179.116,266.816 180.163 M260.659 182.300 C 261.070 182.685,261.841 183.450,262.371 184.000 C 262.901 184.550,262.749 184.235,262.034 183.300 C 261.318 182.365,260.548 181.600,260.322 181.600 C 260.096 181.600,260.248 181.915,260.659 182.300 M204.314 184.165 C 204.482 186.198,204.404 186.458,203.279 187.583 C 202.062 188.799,202.037 189.207,203.235 188.287 C 204.641 187.207,205.344 183.877,204.460 182.483 C 204.277 182.195,204.212 182.941,204.314 184.165 M194.600 182.771 C 194.028 182.996,194.313 183.086,195.600 183.086 C 196.887 183.086,197.172 182.996,196.600 182.771 C 196.160 182.598,195.710 182.456,195.600 182.456 C 195.490 182.456,195.040 182.598,194.600 182.771 M259.690 189.486 C 259.607 195.834,259.540 196.404,258.826 196.786 C 257.537 197.476,255.279 197.279,254.400 196.400 C 253.960 195.960,253.600 195.770,253.600 195.977 C 253.600 197.443,257.676 198.119,259.169 196.900 C 259.994 196.226,260.021 195.943,259.903 189.400 L 259.779 182.600 259.690 189.486 M269.663 184.000 C 270.151 184.660,270.698 185.200,270.878 185.200 C 271.059 185.200,270.725 184.660,270.137 184.000 C 269.549 183.340,269.002 182.800,268.922 182.800 C 268.842 182.800,269.175 183.340,269.663 184.000 M138.138 183.485 C 137.881 183.661,138.441 183.800,139.406 183.800 C 140.686 183.800,141.404 184.052,142.168 184.770 C 142.735 185.303,143.200 185.532,143.200 185.279 C 143.200 184.155,139.224 182.746,138.138 183.485 M161.964 183.636 C 162.494 183.848,163.179 184.332,163.486 184.711 C 163.990 185.333,164.004 185.318,163.633 184.547 C 163.226 183.701,162.366 183.177,161.467 183.225 C 161.210 183.239,161.434 183.424,161.964 183.636 M171.382 184.182 C 170.436 185.128,170.403 185.344,170.476 190.082 L 170.553 195.000 170.776 189.866 C 171.045 183.692,171.781 182.551,174.411 184.232 L 175.400 184.864 174.456 184.032 C 173.229 182.951,172.581 182.983,171.382 184.182 M197.800 184.438 C 197.800 185.077,197.935 185.600,198.100 185.600 C 198.265 185.600,198.400 185.161,198.400 184.624 C 198.400 184.087,198.265 183.564,198.100 183.462 C 197.935 183.360,197.800 183.799,197.800 184.438 M216.000 183.606 C 215.578 183.882,215.815 183.923,216.800 183.742 C 218.525 183.425,218.851 183.198,217.567 183.206 C 217.035 183.209,216.330 183.389,216.000 183.606 M238.522 184.229 L 237.400 185.258 238.673 184.374 C 239.639 183.703,240.267 183.551,241.273 183.744 C 242.212 183.924,242.425 183.884,242.000 183.606 C 240.970 182.930,239.688 183.160,238.522 184.229 M219.714 184.520 C 220.201 185.026,220.674 185.387,220.764 185.323 C 220.998 185.155,219.542 183.600,219.152 183.600 C 218.974 183.600,219.227 184.014,219.714 184.520 M181.761 190.000 C 181.761 193.410,181.822 194.805,181.897 193.100 C 181.972 191.395,181.972 188.605,181.897 186.900 C 181.822 185.195,181.761 186.590,181.761 190.000 M185.043 184.633 C 184.704 185.515,184.750 189.302,185.106 189.862 C 185.268 190.116,185.400 188.901,185.400 187.162 C 185.400 183.721,185.398 183.707,185.043 184.633 M213.849 185.815 C 213.712 186.173,213.634 188.566,213.676 191.133 L 213.753 195.800 213.976 190.600 C 214.219 184.949,214.217 184.858,213.849 185.815 M264.037 186.400 C 265.196 188.196,265.200 188.201,265.198 187.767 C 265.197 187.565,264.732 186.860,264.165 186.200 L 263.134 185.000 264.037 186.400 M135.709 187.200 C 135.709 188.190,135.787 188.595,135.882 188.100 C 135.978 187.605,135.978 186.795,135.882 186.300 C 135.787 185.805,135.709 186.210,135.709 187.200 M149.709 187.200 C 149.709 188.190,149.787 188.595,149.882 188.100 C 149.978 187.605,149.978 186.795,149.882 186.300 C 149.787 185.805,149.709 186.210,149.709 187.200 M193.500 185.889 C 194.215 185.978,195.385 185.978,196.100 185.889 C 196.815 185.801,196.230 185.728,194.800 185.728 C 193.370 185.728,192.785 185.801,193.500 185.889 M143.293 187.200 C 143.293 187.970,143.375 188.285,143.476 187.900 C 143.576 187.515,143.576 186.885,143.476 186.500 C 143.375 186.115,143.293 186.430,143.293 187.200 M164.086 190.830 C 163.985 196.709,164.432 197.611,167.426 197.587 C 168.904 197.575,170.799 196.666,170.328 196.194 C 170.210 196.077,169.886 196.255,169.608 196.590 C 169.301 196.960,168.438 197.200,167.413 197.200 C 164.733 197.200,164.447 196.611,164.299 190.783 L 164.173 185.800 164.086 190.830 M220.886 191.030 C 220.804 195.618,220.847 195.904,221.726 196.730 C 222.644 197.593,225.712 197.989,226.139 197.300 C 226.241 197.135,225.483 197.060,224.454 197.132 C 221.564 197.337,221.254 196.769,221.099 190.983 L 220.972 186.200 220.886 191.030 M158.886 191.476 C 158.791 196.883,158.815 196.834,156.000 197.236 L 154.200 197.493 155.856 197.547 C 158.906 197.645,159.252 196.989,159.101 191.400 L 158.972 186.600 158.886 191.476 M227.348 190.800 C 227.348 193.110,227.414 194.055,227.495 192.900 C 227.576 191.745,227.576 189.855,227.495 188.700 C 227.414 187.545,227.348 188.490,227.348 190.800 M194.100 189.096 C 195.365 189.175,197.435 189.175,198.700 189.096 C 199.965 189.016,198.930 188.951,196.400 188.951 C 193.870 188.951,192.835 189.016,194.100 189.096 M101.840 190.182 C 101.611 191.095,101.463 191.228,101.179 190.779 C 100.876 190.300,100.811 190.321,100.806 190.900 C 100.803 191.285,100.974 191.600,101.186 191.600 C 101.699 191.600,102.494 190.081,102.294 189.481 C 102.207 189.220,102.003 189.535,101.840 190.182 M238.522 190.171 C 239.793 191.336,240.944 191.451,242.400 190.558 C 243.060 190.153,243.128 190.040,242.600 190.224 C 240.625 190.913,239.896 190.876,238.669 190.023 L 237.400 189.142 238.522 190.171 M267.616 191.363 C 268.368 192.409,269.156 193.373,269.367 193.503 C 269.578 193.633,269.135 192.884,268.384 191.837 C 267.632 190.791,266.844 189.827,266.633 189.697 C 266.422 189.567,266.865 190.316,267.616 191.363 M129.616 190.526 C 129.537 192.128,135.005 197.528,135.850 196.683 C 135.947 196.587,135.505 196.292,134.870 196.029 C 133.508 195.465,131.154 193.100,130.262 191.400 C 129.915 190.740,129.625 190.347,129.616 190.526 M138.138 190.894 C 138.392 191.056,138.960 191.188,139.400 191.188 C 139.840 191.188,140.408 191.056,140.662 190.894 C 140.916 190.732,140.348 190.600,139.400 190.600 C 138.452 190.600,137.884 190.732,138.138 190.894 M90.820 191.563 C 90.589 191.994,90.411 192.584,90.425 192.874 C 90.439 193.163,90.618 192.983,90.822 192.474 C 91.026 191.965,91.375 191.661,91.597 191.798 C 91.818 191.935,92.000 191.867,92.000 191.647 C 92.000 190.851,91.230 190.796,90.820 191.563 M185.611 191.200 C 185.615 191.530,185.989 192.250,186.444 192.800 C 186.898 193.350,187.153 193.574,187.010 193.299 C 185.819 190.994,185.606 190.674,185.611 191.200 M200.800 191.091 C 201.350 191.191,202.160 191.572,202.600 191.936 C 203.394 192.595,203.394 192.593,202.638 191.700 C 202.173 191.151,201.471 190.821,200.838 190.854 L 199.800 190.909 200.800 191.091 M194.140 191.694 C 194.708 192.057,197.953 192.042,198.885 191.672 C 199.262 191.522,198.245 191.400,196.626 191.400 C 195.006 191.400,193.887 191.532,194.140 191.694 M146.628 194.371 C 146.011 195.015,144.981 195.759,144.340 196.025 C 143.699 196.290,143.253 196.587,143.350 196.683 C 143.669 197.002,145.779 195.693,146.975 194.436 C 147.621 193.756,148.060 193.200,147.950 193.200 C 147.840 193.200,147.245 193.727,146.628 194.371 M247.178 194.700 L 245.800 196.200 247.300 194.822 C 248.696 193.538,248.984 193.200,248.678 193.200 C 248.612 193.200,247.937 193.875,247.178 194.700 M270.354 195.136 C 270.799 195.760,271.483 196.525,271.874 196.836 C 272.265 197.146,271.988 196.635,271.259 195.700 C 269.774 193.796,269.102 193.377,270.354 195.136 M176.576 196.978 C 177.004 197.320,178.004 197.600,178.800 197.600 C 179.596 197.600,180.596 197.320,181.024 196.978 C 181.774 196.377,181.770 196.370,180.926 196.778 C 180.446 197.010,179.489 197.200,178.800 197.200 C 178.111 197.200,177.154 197.010,176.674 196.778 C 175.830 196.370,175.826 196.377,176.576 196.978 M137.115 197.272 C 137.492 197.421,138.610 197.544,139.600 197.544 C 140.590 197.544,141.708 197.421,142.085 197.272 C 142.462 197.122,141.344 197.000,139.600 197.000 C 137.856 197.000,136.738 197.122,137.115 197.272 M192.715 197.272 C 193.092 197.421,194.660 197.544,196.200 197.544 C 197.740 197.544,199.308 197.421,199.685 197.272 C 200.062 197.122,198.494 197.000,196.200 197.000 C 193.906 197.000,192.338 197.122,192.715 197.272 M210.800 197.200 L 209.000 197.480 210.676 197.540 C 211.598 197.573,212.464 197.420,212.600 197.200 C 212.736 196.980,212.792 196.827,212.724 196.860 C 212.656 196.893,211.790 197.046,210.800 197.200 M234.000 197.200 L 232.200 197.480 233.876 197.540 C 234.798 197.573,235.664 197.420,235.800 197.200 C 235.936 196.980,235.992 196.827,235.924 196.860 C 235.856 196.893,234.990 197.046,234.000 197.200 M239.738 197.294 C 239.992 197.456,240.830 197.588,241.600 197.588 C 242.370 197.588,243.208 197.456,243.462 197.294 C 243.716 197.132,242.878 197.000,241.600 197.000 C 240.322 197.000,239.484 197.132,239.738 197.294 M273.500 197.482 C 273.995 197.578,274.805 197.578,275.300 197.482 C 275.795 197.387,275.390 197.309,274.400 197.309 C 273.410 197.309,273.005 197.387,273.500 197.482 M85.613 206.960 C 85.357 207.738,84.605 208.830,83.943 209.387 C 83.280 209.944,82.899 210.400,83.094 210.400 C 84.063 210.400,86.830 206.296,86.251 205.718 C 86.157 205.623,85.870 206.183,85.613 206.960 M77.286 208.371 C 77.601 208.905,78.295 209.602,78.829 209.920 L 79.800 210.498 78.912 209.749 C 78.423 209.337,77.729 208.640,77.368 208.200 C 76.743 207.437,76.739 207.445,77.286 208.371 " stroke="none" fill="#e48cb4" fill-rule="evenodd"></path><path id="path2" d="M90.000 154.397 L 123.400 154.600 123.400 191.200 L 123.400 227.800 90.000 228.003 L 56.600 228.207 89.667 228.303 C 107.854 228.357,123.019 228.291,123.367 228.157 C 124.336 227.785,124.336 154.615,123.367 154.243 C 123.019 154.109,107.854 154.043,89.667 154.097 L 56.600 154.193 90.000 154.397 M56.192 191.200 C 56.192 211.550,56.240 219.875,56.300 209.700 C 56.359 199.525,56.359 182.875,56.300 172.700 C 56.240 162.525,56.192 170.850,56.192 191.200 M233.105 167.883 C 233.602 167.979,234.322 167.975,234.705 167.875 C 235.087 167.775,234.680 167.696,233.800 167.701 C 232.920 167.705,232.607 167.787,233.105 167.883 M230.792 168.610 C 230.514 168.945,230.366 169.300,230.464 169.398 C 230.562 169.496,230.946 169.221,231.317 168.788 C 231.689 168.355,231.836 168.000,231.645 168.000 C 231.454 168.000,231.070 168.274,230.792 168.610 M236.568 168.789 C 237.033 169.516,237.200 170.806,237.200 173.665 C 237.200 176.202,237.363 177.653,237.668 177.842 C 237.987 178.039,238.051 177.909,237.868 177.433 C 237.721 177.049,237.600 175.149,237.600 173.212 C 237.600 170.213,237.476 169.548,236.768 168.744 L 235.936 167.800 236.568 168.789 M255.905 168.683 C 256.402 168.779,257.122 168.775,257.505 168.675 C 257.887 168.575,257.480 168.496,256.600 168.501 C 255.720 168.505,255.407 168.587,255.905 168.683 M273.905 168.683 C 274.402 168.779,275.122 168.775,275.505 168.675 C 275.887 168.575,275.480 168.496,274.600 168.501 C 273.720 168.505,273.407 168.587,273.905 168.683 M253.052 170.900 C 252.721 172.136,252.790 194.834,253.128 195.684 C 253.278 196.061,253.400 190.436,253.400 183.184 C 253.400 175.933,253.376 170.000,253.347 170.000 C 253.317 170.000,253.185 170.405,253.052 170.900 M260.896 171.395 C 261.393 172.162,261.944 172.792,262.120 172.795 C 262.297 172.798,261.960 172.170,261.373 171.400 C 260.000 169.600,259.732 169.597,260.896 171.395 M277.800 183.176 C 277.800 190.407,277.932 196.115,278.094 195.861 C 278.463 195.283,278.442 171.647,278.072 170.714 C 277.922 170.337,277.800 175.945,277.800 183.176 M270.890 177.149 C 270.807 183.573,270.750 184.056,270.136 183.549 C 269.529 183.047,269.519 183.076,270.026 183.890 C 271.022 185.490,271.221 184.242,271.100 177.170 L 270.980 170.200 270.890 177.149 M230.178 182.800 C 230.178 189.510,230.232 192.255,230.299 188.900 C 230.366 185.545,230.366 180.055,230.299 176.700 C 230.232 173.345,230.178 176.090,230.178 182.800 M70.600 172.403 C 70.072 172.632,70.424 172.675,71.635 172.529 C 73.289 172.331,73.556 172.418,74.335 173.408 C 74.811 174.013,75.200 174.335,75.200 174.124 C 75.200 172.665,72.406 171.620,70.600 172.403 M89.400 172.464 C 88.579 172.916,87.225 174.396,87.209 174.860 C 87.204 175.003,87.812 174.508,88.560 173.760 C 90.292 172.028,92.163 171.916,93.969 173.436 C 95.171 174.446,95.703 174.446,94.692 173.435 C 93.284 172.027,90.967 171.602,89.400 172.464 M108.765 172.513 C 108.129 173.001,107.200 174.497,107.200 175.033 C 107.200 175.190,107.617 174.707,108.128 173.959 C 108.985 172.704,109.206 172.604,111.028 172.658 C 112.400 172.698,112.757 172.615,112.200 172.386 C 111.023 171.901,109.488 171.958,108.765 172.513 M68.147 173.509 C 66.815 174.588,66.338 175.790,66.813 176.870 L 67.223 177.800 67.038 176.860 C 66.788 175.586,67.441 174.285,68.730 173.485 C 69.319 173.120,69.620 172.821,69.400 172.820 C 69.180 172.819,68.616 173.129,68.147 173.509 M263.944 175.475 C 264.853 176.837,265.819 178.088,266.092 178.257 C 266.365 178.426,265.886 177.582,265.027 176.382 C 262.753 173.204,262.017 172.587,263.944 175.475 M115.398 176.405 C 115.397 177.464,115.529 178.121,115.692 177.865 C 116.079 177.256,116.085 174.899,115.700 174.663 C 115.535 174.562,115.399 175.346,115.398 176.405 M106.629 176.629 C 106.481 177.215,106.438 177.772,106.532 177.866 C 106.627 177.960,106.824 177.558,106.971 176.971 C 107.119 176.385,107.162 175.828,107.068 175.734 C 106.973 175.640,106.776 176.042,106.629 176.629 M138.700 176.682 C 139.195 176.778,140.005 176.778,140.500 176.682 C 140.995 176.587,140.590 176.509,139.600 176.509 C 138.610 176.509,138.205 176.587,138.700 176.682 M155.105 176.683 C 155.602 176.779,156.322 176.775,156.705 176.675 C 157.087 176.575,156.680 176.496,155.800 176.501 C 154.920 176.505,154.607 176.587,155.105 176.683 M162.900 176.676 C 163.285 176.776,163.915 176.776,164.300 176.676 C 164.685 176.575,164.370 176.493,163.600 176.493 C 162.830 176.493,162.515 176.575,162.900 176.676 M194.905 176.687 C 195.514 176.779,196.414 176.777,196.905 176.682 C 197.397 176.587,196.900 176.511,195.800 176.514 C 194.700 176.517,194.297 176.595,194.905 176.687 M209.905 176.683 C 210.402 176.779,211.122 176.775,211.505 176.675 C 211.887 176.575,211.480 176.496,210.600 176.501 C 209.720 176.505,209.407 176.587,209.905 176.683 M218.100 176.676 C 218.485 176.776,219.115 176.776,219.500 176.676 C 219.885 176.575,219.570 176.493,218.800 176.493 C 218.030 176.493,217.715 176.575,218.100 176.676 M240.900 176.676 C 241.285 176.776,241.915 176.776,242.300 176.676 C 242.685 176.575,242.370 176.493,241.600 176.493 C 240.830 176.493,240.515 176.575,240.900 176.676 M135.600 177.200 C 135.067 177.545,135.067 177.588,135.600 177.588 C 135.930 177.588,136.470 177.413,136.800 177.200 C 137.333 176.855,137.333 176.812,136.800 176.812 C 136.470 176.812,135.930 176.987,135.600 177.200 M143.600 177.621 C 144.590 178.074,146.207 179.199,147.193 180.122 C 148.257 181.117,148.582 181.316,147.993 180.611 C 146.298 178.583,144.793 177.551,142.800 177.050 C 142.250 176.912,142.610 177.169,143.600 177.621 M158.594 177.831 L 159.549 178.862 160.774 177.956 C 161.449 177.457,162.000 176.993,162.000 176.925 C 162.000 176.552,161.239 176.904,160.444 177.645 L 159.538 178.489 158.946 177.645 C 158.621 177.180,158.193 176.800,157.996 176.800 C 157.799 176.800,158.068 177.264,158.594 177.831 M166.600 177.537 C 167.260 177.940,168.047 178.570,168.349 178.935 C 168.651 179.301,169.069 179.600,169.278 179.600 C 169.710 179.600,169.118 178.983,167.446 177.691 C 166.811 177.201,166.091 176.801,165.846 176.801 C 165.601 176.802,165.940 177.133,166.600 177.537 M178.156 177.746 C 179.012 178.264,180.136 179.388,180.654 180.244 C 181.172 181.100,181.596 181.620,181.596 181.400 C 181.598 180.532,179.938 178.350,178.704 177.598 C 177.987 177.161,177.220 176.803,177.000 176.804 C 176.780 176.804,177.300 177.228,178.156 177.746 M207.592 177.410 C 206.819 178.341,207.371 178.517,208.198 177.602 C 208.597 177.161,208.738 176.800,208.511 176.800 C 208.284 176.800,207.870 177.074,207.592 177.410 M213.240 177.500 C 213.923 178.612,214.702 178.628,216.000 177.558 L 217.000 176.733 215.716 177.443 C 214.475 178.130,214.403 178.127,213.560 177.377 L 212.687 176.600 213.240 177.500 M132.795 178.900 C 131.879 179.615,130.773 180.830,130.338 181.600 C 129.731 182.674,129.715 182.767,130.269 182.000 C 131.234 180.665,132.775 179.144,134.000 178.317 C 134.550 177.946,134.879 177.633,134.731 177.621 C 134.583 177.609,133.712 178.185,132.795 178.900 M201.569 178.283 C 202.101 178.671,203.046 179.792,203.669 180.773 C 204.797 182.552,205.204 182.731,204.350 181.074 C 203.719 179.848,202.346 178.395,201.400 177.952 C 200.862 177.700,200.917 177.808,201.569 178.283 M247.062 179.236 C 247.975 180.206,249.100 181.630,249.560 182.400 C 250.020 183.170,250.398 183.606,250.399 183.369 C 250.401 182.542,247.917 179.195,246.663 178.337 C 245.532 177.563,245.573 177.656,247.062 179.236 M152.252 178.900 C 151.923 180.129,151.989 194.831,152.328 195.685 C 152.478 196.062,152.600 192.237,152.600 187.185 C 152.600 182.133,152.576 178.000,152.547 178.000 C 152.517 178.000,152.385 178.405,152.252 178.900 M224.819 179.700 C 225.286 180.195,226.005 181.230,226.416 182.000 C 226.828 182.770,227.173 183.206,227.182 182.969 C 227.208 182.346,224.795 178.800,224.347 178.800 C 224.139 178.800,224.351 179.205,224.819 179.700 M267.586 180.580 C 268.259 181.558,269.001 182.477,269.234 182.621 C 269.468 182.765,268.999 181.965,268.192 180.842 C 266.390 178.334,265.893 178.119,267.586 180.580 M76.812 180.000 C 76.812 180.330,76.987 180.870,77.200 181.200 C 77.545 181.733,77.588 181.733,77.588 181.200 C 77.588 180.870,77.413 180.330,77.200 180.000 C 76.855 179.467,76.812 179.467,76.812 180.000 M206.967 187.200 C 206.967 191.490,207.026 193.245,207.098 191.100 C 207.170 188.955,207.170 185.445,207.098 183.300 C 207.026 181.155,206.967 182.910,206.967 187.200 M185.356 182.643 C 185.024 183.437,184.826 184.159,184.914 184.248 C 185.003 184.336,185.359 183.687,185.705 182.804 C 186.489 180.809,186.182 180.668,185.356 182.643 M77.656 182.400 C 77.656 182.730,77.811 183.360,78.000 183.800 C 78.217 184.304,78.344 184.378,78.344 184.000 C 78.344 183.670,78.189 183.040,78.000 182.600 C 77.783 182.096,77.656 182.022,77.656 182.400 M181.881 184.000 C 182.006 185.210,182.174 186.275,182.254 186.367 C 182.535 186.687,182.317 183.791,181.987 182.800 C 181.771 182.154,181.734 182.580,181.881 184.000 M260.090 189.100 L 260.179 196.200 260.300 189.440 L 260.420 182.679 261.481 183.640 L 262.542 184.600 261.644 183.300 C 260.134 181.115,259.995 181.631,260.090 189.100 M129.029 184.229 C 128.881 184.815,128.838 185.372,128.932 185.466 C 129.027 185.560,129.224 185.158,129.371 184.571 C 129.519 183.985,129.562 183.428,129.468 183.334 C 129.373 183.240,129.176 183.642,129.029 184.229 M192.870 184.126 C 192.391 184.635,192.000 185.175,192.000 185.326 C 192.000 185.765,197.527 185.642,197.802 185.196 C 198.215 184.528,197.593 183.199,196.873 183.212 C 196.259 183.223,196.261 183.260,196.900 183.632 C 198.482 184.554,197.699 185.200,195.000 185.200 C 192.028 185.200,191.908 185.088,193.700 183.996 C 194.421 183.556,194.720 183.202,194.370 183.201 C 194.023 183.201,193.348 183.617,192.870 184.126 M204.901 184.600 C 204.905 185.480,204.987 185.793,205.083 185.295 C 205.179 184.798,205.175 184.078,205.075 183.695 C 204.975 183.313,204.896 183.720,204.901 184.600 M149.799 187.194 C 149.799 189.158,149.922 190.458,150.072 190.083 C 150.425 189.197,150.424 185.201,150.071 184.311 C 149.920 183.932,149.798 185.230,149.799 187.194 M227.396 189.930 C 227.400 195.992,227.343 196.505,226.600 197.076 C 226.132 197.436,226.049 197.618,226.400 197.514 C 227.844 197.087,228.615 189.112,227.648 184.600 C 227.507 183.940,227.393 186.339,227.396 189.930 M136.875 184.816 C 136.394 185.264,136.005 185.849,136.012 186.116 C 136.019 186.382,136.204 186.291,136.424 185.914 C 136.644 185.537,137.218 184.952,137.701 184.614 C 138.183 184.276,138.392 184.000,138.164 184.000 C 137.937 184.000,137.357 184.367,136.875 184.816 M141.746 184.829 C 143.465 186.181,142.837 189.940,140.877 190.032 C 140.417 190.053,140.369 190.131,140.729 190.274 C 141.697 190.662,143.200 188.792,143.200 187.200 C 143.200 185.827,141.956 184.000,141.020 184.000 C 140.840 184.000,141.166 184.373,141.746 184.829 M159.949 184.660 C 159.548 185.142,159.388 186.789,159.357 190.760 L 159.314 196.200 159.557 190.760 C 159.723 187.045,159.974 185.111,160.349 184.660 C 160.651 184.297,160.808 184.000,160.698 184.000 C 160.588 184.000,160.251 184.297,159.949 184.660 M162.977 184.889 C 163.447 185.560,163.621 187.009,163.686 190.789 L 163.772 195.800 163.899 191.015 C 164.023 186.393,163.623 184.000,162.729 184.000 C 162.523 184.000,162.635 184.400,162.977 184.889 M214.998 184.802 C 213.975 185.932,214.410 186.037,215.486 184.920 C 215.973 184.414,216.226 184.000,216.048 184.000 C 215.870 184.000,215.397 184.361,214.998 184.802 M219.371 184.628 C 220.241 185.498,220.386 186.358,220.516 191.400 L 220.630 195.800 220.715 190.886 C 220.800 185.998,220.338 184.000,219.125 184.000 C 218.915 184.000,219.025 184.283,219.371 184.628 M238.155 185.012 C 237.790 185.569,237.606 186.139,237.746 186.279 C 237.886 186.419,238.000 186.323,238.000 186.067 C 238.000 185.810,238.360 185.240,238.800 184.800 C 239.240 184.360,239.424 184.000,239.209 184.000 C 238.994 184.000,238.520 184.456,238.155 185.012 M242.761 184.954 C 243.222 185.589,243.600 186.599,243.600 187.200 C 243.600 187.801,243.222 188.811,242.761 189.446 L 241.922 190.600 242.961 189.478 C 243.581 188.808,244.000 187.889,244.000 187.200 C 244.000 186.511,243.581 185.592,242.961 184.922 L 241.922 183.800 242.761 184.954 M250.593 187.200 C 250.593 190.209,250.634 190.404,250.953 188.900 C 251.167 187.891,251.167 186.509,250.953 185.500 C 250.634 183.996,250.593 184.191,250.593 187.200 M263.291 186.100 C 263.833 186.815,265.227 188.705,266.388 190.300 C 268.459 193.145,269.732 194.453,267.945 191.900 C 265.967 189.074,262.692 184.800,262.504 184.800 C 262.395 184.800,262.749 185.385,263.291 186.100 M184.520 187.200 C 184.520 188.410,184.595 188.905,184.687 188.300 C 184.778 187.695,184.778 186.705,184.687 186.100 C 184.595 185.495,184.520 185.990,184.520 187.200 M170.886 190.267 C 170.839 192.944,170.696 195.464,170.570 195.867 C 170.358 196.540,170.376 196.544,170.782 195.913 C 171.064 195.477,171.179 193.436,171.099 190.313 L 170.973 185.400 170.886 190.267 M99.234 187.200 C 99.246 187.530,99.411 188.160,99.600 188.600 L 99.944 189.400 99.966 188.600 C 99.978 188.160,99.813 187.530,99.600 187.200 C 99.255 186.667,99.215 186.667,99.234 187.200 M214.086 191.300 C 214.011 195.399,213.898 196.102,213.200 196.800 C 212.760 197.240,212.576 197.600,212.791 197.600 C 213.977 197.600,214.426 195.676,214.299 191.150 L 214.171 186.600 214.086 191.300 M82.629 188.629 C 82.481 189.215,82.438 189.772,82.532 189.866 C 82.627 189.960,82.824 189.558,82.971 188.971 C 83.119 188.385,83.162 187.828,83.068 187.734 C 82.973 187.640,82.776 188.042,82.629 188.629 M136.012 188.284 C 135.998 188.856,137.568 190.400,138.164 190.400 C 138.392 190.400,138.183 190.124,137.701 189.786 C 137.218 189.448,136.644 188.863,136.424 188.486 C 136.204 188.109,136.019 188.018,136.012 188.284 M237.616 188.318 C 237.587 189.264,239.510 190.802,240.682 190.768 C 241.859 190.735,241.700 190.624,239.910 190.230 C 239.292 190.094,238.563 189.516,238.226 188.895 C 237.899 188.293,237.625 188.033,237.616 188.318 M128.856 189.200 C 128.856 189.530,129.011 190.160,129.200 190.600 C 129.417 191.104,129.544 191.178,129.544 190.800 C 129.544 190.470,129.389 189.840,129.200 189.400 C 128.983 188.896,128.856 188.822,128.856 189.200 M197.100 189.099 C 193.637 189.192,192.400 189.359,192.400 189.733 C 192.400 190.440,193.239 191.205,193.980 191.173 C 194.389 191.155,194.294 190.998,193.700 190.712 C 191.961 189.873,192.841 189.600,197.300 189.594 C 199.775 189.591,202.070 189.413,202.400 189.200 C 202.933 188.855,202.933 188.821,202.400 188.892 C 202.070 188.936,199.685 189.029,197.100 189.099 M90.880 190.480 C 90.115 191.245,90.324 191.654,91.200 191.107 C 92.008 190.602,92.269 190.000,91.680 190.000 C 91.504 190.000,91.144 190.216,90.880 190.480 M82.000 190.705 C 82.000 190.946,81.717 191.426,81.371 191.771 C 81.026 192.117,80.929 192.400,81.157 192.400 C 81.664 192.400,82.556 190.823,82.232 190.499 C 82.105 190.371,82.000 190.464,82.000 190.705 M102.032 190.671 C 102.014 190.931,101.717 191.426,101.371 191.771 C 101.026 192.117,100.914 192.400,101.122 192.400 C 101.729 192.400,102.495 191.275,102.269 190.713 C 102.130 190.367,102.053 190.353,102.032 190.671 M199.400 190.819 C 198.821 191.081,199.004 191.118,200.058 190.954 C 200.902 190.822,201.912 190.938,202.458 191.229 C 203.316 191.686,203.351 191.672,202.851 191.065 C 202.259 190.348,200.687 190.235,199.400 190.819 M249.600 192.001 C 249.320 192.676,248.261 194.070,247.246 195.100 C 245.665 196.703,245.601 196.824,246.800 195.942 C 248.199 194.913,250.707 191.373,250.315 190.982 C 250.201 190.868,249.879 191.326,249.600 192.001 M195.500 191.482 C 195.995 191.578,196.805 191.578,197.300 191.482 C 197.795 191.387,197.390 191.309,196.400 191.309 C 195.410 191.309,195.005 191.387,195.500 191.482 M130.222 192.600 C 131.201 194.317,132.163 195.297,133.676 196.117 C 134.931 196.798,134.948 196.798,134.000 196.121 C 132.739 195.222,131.205 193.693,130.265 192.400 C 129.547 191.411,129.546 191.413,130.222 192.600 M146.400 194.892 C 144.249 196.908,144.280 197.067,146.506 195.446 C 147.410 194.788,149.109 192.759,148.709 192.815 C 148.649 192.824,147.610 193.758,146.400 194.892 M186.400 193.725 C 186.400 193.794,186.985 194.379,187.700 195.025 L 189.000 196.200 187.825 194.900 C 186.730 193.688,186.400 193.416,186.400 193.725 M269.775 194.932 C 270.391 195.739,270.976 196.400,271.075 196.400 C 271.353 196.400,269.621 194.060,269.109 193.744 C 268.859 193.589,269.159 194.124,269.775 194.932 M182.032 195.569 C 182.014 195.881,181.692 196.511,181.315 196.969 C 180.669 197.753,180.683 197.751,181.562 196.942 C 182.075 196.470,182.397 195.840,182.279 195.542 C 182.104 195.103,182.057 195.108,182.032 195.569 M207.200 196.289 C 207.200 196.792,208.343 197.790,208.612 197.521 C 208.718 197.415,208.444 197.002,208.002 196.602 C 207.561 196.203,207.200 196.062,207.200 196.289 M230.400 196.281 C 230.400 196.743,231.535 197.809,231.758 197.557 C 231.834 197.471,231.560 197.054,231.148 196.630 C 230.737 196.207,230.400 196.049,230.400 196.281 M236.426 196.859 C 235.923 197.267,235.675 197.600,235.876 197.600 C 236.076 197.600,236.451 197.389,236.709 197.131 C 237.068 196.772,237.428 196.776,238.241 197.146 C 239.677 197.800,239.813 197.537,238.445 196.752 C 237.421 196.164,237.275 196.172,236.426 196.859 M142.400 197.200 C 141.867 197.545,141.867 197.588,142.400 197.588 C 142.730 197.588,143.270 197.413,143.600 197.200 C 144.133 196.855,144.133 196.812,143.600 196.812 C 143.270 196.812,142.730 196.987,142.400 197.200 M200.200 197.200 C 199.696 197.417,199.622 197.544,200.000 197.544 C 200.330 197.544,200.960 197.389,201.400 197.200 C 201.904 196.983,201.978 196.856,201.600 196.856 C 201.270 196.856,200.640 197.011,200.200 197.200 M138.700 197.882 C 139.195 197.978,140.005 197.978,140.500 197.882 C 140.995 197.787,140.590 197.709,139.600 197.709 C 138.610 197.709,138.205 197.787,138.700 197.882 M155.105 197.883 C 155.602 197.979,156.322 197.975,156.705 197.875 C 157.087 197.775,156.680 197.696,155.800 197.701 C 154.920 197.705,154.607 197.787,155.105 197.883 M166.705 197.883 C 167.202 197.979,167.922 197.975,168.305 197.875 C 168.687 197.775,168.280 197.696,167.400 197.701 C 166.520 197.705,166.207 197.787,166.705 197.883 M177.905 197.883 C 178.402 197.979,179.122 197.975,179.505 197.875 C 179.887 197.775,179.480 197.696,178.600 197.701 C 177.720 197.705,177.407 197.787,177.905 197.883 M194.691 197.889 C 195.401 197.977,196.661 197.979,197.491 197.892 C 198.321 197.805,197.740 197.733,196.200 197.731 C 194.660 197.729,193.981 197.800,194.691 197.889 M209.905 197.883 C 210.402 197.979,211.122 197.975,211.505 197.875 C 211.887 197.775,211.480 197.696,210.600 197.701 C 209.720 197.705,209.407 197.787,209.905 197.883 M223.505 197.883 C 224.002 197.979,224.722 197.975,225.105 197.875 C 225.487 197.775,225.080 197.696,224.200 197.701 C 223.320 197.705,223.007 197.787,223.505 197.883 M233.105 197.883 C 233.602 197.979,234.322 197.975,234.705 197.875 C 235.087 197.775,234.680 197.696,233.800 197.701 C 232.920 197.705,232.607 197.787,233.105 197.883 M240.900 197.876 C 241.285 197.976,241.915 197.976,242.300 197.876 C 242.685 197.775,242.370 197.693,241.600 197.693 C 240.830 197.693,240.515 197.775,240.900 197.876 M255.905 197.883 C 256.402 197.979,257.122 197.975,257.505 197.875 C 257.887 197.775,257.480 197.696,256.600 197.701 C 255.720 197.705,255.407 197.787,255.905 197.883 M273.500 197.882 C 273.995 197.978,274.805 197.978,275.300 197.882 C 275.795 197.787,275.390 197.709,274.400 197.709 C 273.410 197.709,273.005 197.787,273.500 197.882 M75.212 202.000 C 75.212 202.330,75.387 202.870,75.600 203.200 C 75.945 203.733,75.988 203.733,75.988 203.200 C 75.988 202.870,75.813 202.330,75.600 202.000 C 75.255 201.467,75.212 201.467,75.212 202.000 M76.825 206.281 C 76.786 207.037,77.687 208.800,78.113 208.800 C 78.335 208.800,78.315 208.579,78.065 208.278 C 77.827 207.992,77.456 207.317,77.241 206.778 C 77.027 206.240,76.839 206.017,76.825 206.281 M104.434 208.553 L 103.469 209.800 104.613 208.712 C 105.243 208.114,105.677 207.553,105.579 207.465 C 105.480 207.377,104.965 207.867,104.434 208.553 M98.706 209.155 C 99.971 210.360,102.440 210.907,102.943 210.093 C 103.047 209.924,102.460 209.849,101.639 209.928 C 100.484 210.038,99.833 209.825,98.772 208.990 L 97.400 207.909 98.706 209.155 M79.200 209.758 C 80.246 210.400,82.619 210.617,82.938 210.100 C 83.040 209.935,82.376 209.792,81.462 209.783 C 80.548 209.774,79.440 209.627,79.000 209.456 C 78.529 209.273,78.612 209.397,79.200 209.758 " stroke="none" fill="#ebb1cc" fill-rule="evenodd"></path><path id="path3" d="M277.778 183.400 C 277.778 190.220,277.832 193.066,277.899 189.725 C 277.966 186.384,277.966 180.804,277.899 177.325 C 277.833 173.846,277.778 176.580,277.778 183.400 M253.377 183.400 C 253.377 190.000,253.432 192.756,253.499 189.525 C 253.566 186.293,253.566 180.893,253.499 177.525 C 253.432 174.156,253.377 176.800,253.377 183.400 M152.569 187.200 C 152.569 191.710,152.627 193.555,152.698 191.300 C 152.770 189.045,152.770 185.355,152.698 183.100 C 152.627 180.845,152.569 182.690,152.569 187.200 M182.151 190.800 C 182.151 193.330,182.216 194.365,182.296 193.100 C 182.375 191.835,182.375 189.765,182.296 188.500 C 182.216 187.235,182.151 188.270,182.151 190.800 M175.350 191.400 C 175.351 193.820,175.416 194.758,175.496 193.485 C 175.576 192.212,175.575 190.232,175.494 189.085 C 175.414 187.938,175.349 188.980,175.350 191.400 " stroke="none" fill="#e494b4" fill-rule="evenodd"></path></g></svg>